<?xml version="1.0" encoding="utf-8"?>
<!-- Generator: Adobe Illustrator 20.1.0, SVG Export Plug-In . SVG Version: 6.00 Build 0)  -->
<svg version="1.1" id="Layer_1" xmlns="http://www.w3.org/2000/svg" xmlns:xlink="http://www.w3.org/1999/xlink" x="0px" y="0px"
	 viewBox="0 0 62 24" style="enable-background:new 0 0 62 24;" xml:space="preserve">
<style type="text/css">
	.st0{enable-background:new    ;}
	.st1{fill:none;}
</style>
<path class="st0" d="M7.5,16.3C3.4,16.3,0,13,0,8.9s3.4-7.4,7.5-7.4c2.2,0,3.9,0.9,5.1,2L11.1,5c-0.9-0.8-2-1.4-3.6-1.4
	C4.5,3.6,2.2,6,2.2,9s2.3,5.4,5.3,5.4c1.9,0,3-0.8,3.7-1.5c0.6-0.6,0.9-1.4,1.1-2.5H7.5v-2h6.8c0.1,0.4,0.1,0.8,0.1,1.3
	c0,1.5-0.4,3.4-1.8,4.7C11.3,15.6,9.7,16.3,7.5,16.3z M25.2,11.5c0,2.7-2.1,4.8-4.8,4.8s-4.8-2-4.8-4.8s2.1-4.8,4.8-4.8
	S25.2,8.8,25.2,11.5z M23.2,11.5c0-1.7-1.2-2.9-2.7-2.9s-2.7,1.2-2.7,2.9s1.2,2.9,2.7,2.9S23.2,13.2,23.2,11.5z M36.2,11.5
	c0,2.7-2.1,4.8-4.8,4.8s-4.8-2-4.8-4.8s2.1-4.8,4.8-4.8S36.2,8.8,36.2,11.5z M34.2,11.5c0-1.7-1.2-2.9-2.7-2.9s-2.7,1.2-2.7,2.9
	s1.2,2.9,2.7,2.9C32.9,14.4,34.2,13.2,34.2,11.5z M46.8,7.1v8.5c0,3.5-2.1,4.9-4.5,4.9c-2.3,0-3.7-1.5-4.2-2.8l1.8-0.8
	c0.3,0.8,1.1,1.7,2.4,1.7c1.6,0,2.5-1,2.5-2.8v-0.7h-0.1c-0.5,0.6-1.4,1.1-2.5,1.1c-2.4,0-4.6-2.1-4.6-4.7c0-2.7,2.2-4.8,4.6-4.8
	c1.1,0,2,0.5,2.5,1.1h0.1V7.1H46.8z M44.9,11.6c0-1.7-1.1-2.9-2.5-2.9s-2.7,1.2-2.7,2.9s1.2,2.9,2.7,2.9
	C43.8,14.4,44.9,13.2,44.9,11.6z M50.8,2v14h-2.1V2H50.8z M59.3,13.1l1.6,1.1c-0.5,0.8-1.8,2.1-4,2.1c-2.7,0-4.7-2.1-4.7-4.8
	c0-2.8,2-4.8,4.5-4.8s3.7,2,4.1,3l0.2,0.5L54.6,13c0.5,0.9,1.2,1.4,2.3,1.4C58,14.4,58.8,13.9,59.3,13.1z M54.3,11.4l4.2-1.8
	c-0.2-0.6-0.9-1-1.8-1C55.7,8.6,54.3,9.6,54.3,11.4z"/>
<path class="st1" d="M0,0h62v24H0V0z"/>
</svg>
